HIERARCHY
ROOT Hips
{
	OFFSET 0.000000 89.005402 0.000000
	CHANNELS 6 Xposition Yposition Zposition Xrotation Yrotation Zrotation
	JOINT Spine
	{
		OFFSET 0.116900 10.681000 0.373400
		CHANNELS 3 Xrotation Yrotation Zrotation
		JOINT Spine1
		{
			OFFSET 0.000000 13.840401 0.053500
			CHANNELS 3 Xrotation Yrotation Zrotation
			JOINT Spine2
			{
				OFFSET 0.000000 14.712700 -0.366200
				CHANNELS 3 Xrotation Yrotation Zrotation
				JOINT Neck
				{
					OFFSET 0.000000 35.415497 -3.314200
					CHANNELS 3 Xrotation Yrotation Zrotation
					JOINT Head
					{
						OFFSET 0.000000 16.899200 1.218300
						CHANNELS 3 Xrotation Yrotation Zrotation
						JOINT HeadTop_End
						{
							OFFSET 0.000000 22.206207 2.192500
							CHANNELS 3 Xrotation Yrotation Zrotation
							End Site
							{
								OFFSET 0.000000 22.314178 0.000000
							}
						}
					}
				}
				JOINT LeftShoulder
				{
					OFFSET 12.896400 26.716293 -4.548400
					CHANNELS 3 Xrotation Yrotation Zrotation
					JOINT LeftArm
					{
						OFFSET 19.027000 -4.857010 -1.718400
						CHANNELS 3 Xrotation Yrotation Zrotation
						JOINT LeftForeArm
						{
							OFFSET 24.179897 0.000000 0.000000
							CHANNELS 3 Xrotation Yrotation Zrotation
							JOINT LeftHand
							{
								OFFSET 27.156403 0.000000 0.000000
								CHANNELS 3 Xrotation Yrotation Zrotation
								JOINT LeftHandIndex1
								{
									OFFSET 16.441200 0.000000 0.000000
									CHANNELS 3 Xrotation Yrotation Zrotation
									JOINT LeftHandIndex2
									{
										OFFSET 4.821899 0.000000 0.000000
										CHANNELS 3 Xrotation Yrotation Zrotation
										JOINT LeftHandIndex3
										{
											OFFSET 6.386497 0.000000 0.000000
											CHANNELS 3 Xrotation Yrotation Zrotation
											JOINT LeftHandIndex4
											{
												OFFSET 5.188988 0.000000 0.000000
												CHANNELS 3 Xrotation Yrotation Zrotation
												End Site
												{
													OFFSET -0.178703 5.185913 0.000177
												}
											}
										}
									}
								}
								JOINT LeftHandThumb1
								{
									OFFSET 6.534897 -5.032593 5.900300
									CHANNELS 3 Xrotation Yrotation Zrotation
									JOINT LeftHandThumb2
									{
										OFFSET 3.818176 -2.204422 2.204423
										CHANNELS 3 Xrotation Yrotation Zrotation
										JOINT LeftHandThumb3
										{
											OFFSET 3.252098 -1.877594 1.877601
											CHANNELS 3 Xrotation Yrotation Zrotation
											JOINT LeftHandThumb4
											{
												OFFSET 5.251778 -3.032120 3.032117
												CHANNELS 3 Xrotation Yrotation Zrotation
												End Site
												{
													OFFSET 0.000023 6.780014 0.000000
												}
											}
										}
									}
								}
							}
						}
					}
				}
				JOINT RightShoulder
				{
					OFFSET -12.896300 26.716293 -4.548400
					CHANNELS 3 Xrotation Yrotation Zrotation
					JOINT RightArm
					{
						OFFSET -19.027000 -4.857010 -1.718400
						CHANNELS 3 Xrotation Yrotation Zrotation
						JOINT RightForeArm
						{
							OFFSET -24.179897 0.000000 0.000000
							CHANNELS 3 Xrotation Yrotation Zrotation
							JOINT RightHand
							{
								OFFSET -27.156403 0.000000 0.000000
								CHANNELS 3 Xrotation Yrotation Zrotation
								JOINT RightHandThumb1
								{
									OFFSET -6.591202 -4.852203 5.988100
									CHANNELS 3 Xrotation Yrotation Zrotation
									JOINT RightHandThumb2
									{
										OFFSET -3.818176 -2.204422 2.204423
										CHANNELS 3 Xrotation Yrotation Zrotation
										JOINT RightHandThumb3
										{
											OFFSET -3.252098 -1.877594 1.877601
											CHANNELS 3 Xrotation Yrotation Zrotation
											JOINT RightHandThumb4
											{
												OFFSET -5.251778 -3.032120 3.032117
												CHANNELS 3 Xrotation Yrotation Zrotation
												End Site
												{
													OFFSET -0.000023 6.780014 0.000000
												}
											}
										}
									}
								}
								JOINT RightHandIndex1
								{
									OFFSET -16.029404 0.000000 0.000000
									CHANNELS 3 Xrotation Yrotation Zrotation
									JOINT RightHandIndex2
									{
										OFFSET -5.213303 0.000000 0.000000
										CHANNELS 3 Xrotation Yrotation Zrotation
										JOINT RightHandIndex3
										{
											OFFSET -6.386528 0.000000 0.000000
											CHANNELS 3 Xrotation Yrotation Zrotation
											JOINT RightHandIndex4
											{
												OFFSET -5.189026 0.000000 0.000000
												CHANNELS 3 Xrotation Yrotation Zrotation
												End Site
												{
													OFFSET 0.236702 5.183624 0.001972
												}
											}
										}
									}
								}
							}
						}
					}
				}
			}
		}
	}
	JOINT LeftUpLeg
	{
		OFFSET 14.073000 -7.904099 -1.463000
		CHANNELS 3 Xrotation Yrotation Zrotation
		JOINT LeftLeg
		{
			OFFSET -0.109806 -34.073280 4.093200
			CHANNELS 3 Xrotation Yrotation Zrotation
			JOINT LeftFoot
			{
				OFFSET 0.109806 -29.899420 -6.319000
				CHANNELS 3 Xrotation Yrotation Zrotation
				JOINT LeftToeBase
				{
					OFFSET 1.551100 -14.988700 20.535801
					CHANNELS 3 Xrotation Yrotation Zrotation
					JOINT LeftToe_End
					{
						OFFSET 0.221200 0.570800 13.248301
						CHANNELS 3 Xrotation Yrotation Zrotation
						End Site
						{
							OFFSET 0.000000 13.262435 0.000000
						}
					}
				}
			}
		}
	}
	JOINT RightUpLeg
	{
		OFFSET -13.839300 -7.904099 -1.463000
		CHANNELS 3 Xrotation Yrotation Zrotation
		JOINT RightLeg
		{
			OFFSET 0.109694 -34.073219 4.093300
			CHANNELS 3 Xrotation Yrotation Zrotation
			JOINT RightFoot
			{
				OFFSET -0.109694 -29.899384 -6.319200
				CHANNELS 3 Xrotation Yrotation Zrotation
				JOINT RightToeBase
				{
					OFFSET -1.551100 -14.988700 20.535801
					CHANNELS 3 Xrotation Yrotation Zrotation
					JOINT RightToe_End
					{
						OFFSET -0.221200 0.570900 13.248299
						CHANNELS 3 Xrotation Yrotation Zrotation
						End Site
						{
							OFFSET 0.000000 13.262440 0.000000
						}
					}
				}
			}
		}
	}
}
MOTION
Frames: 5
Frame Time: 0.033333
0.655602 87.537712 1.257461 -3.331728 8.326229 -2.937905 0.027604 4.523040 1.612346 4.000503 -1.274403 3.887446 4.030842 -1.340305 3.854695 -1.386101 -1.012365 -2.055922 -8.315697 -3.842579 3.583844 0.000000 -0.000000 -0.000001 -1.670601 -6.377210 -12.430214 6.414316 -22.013496 -72.829003 0.000009 -18.935620 0.000008 -20.707339 -3.482907 4.222348 0.024237 2.682555 -10.495205 0.587498 2.558953 -25.856456 0.235309 1.645278 -16.277654 0.000000 -0.000000 0.000001 -1.777631 2.835000 7.877331 2.843054 24.566551 11.256702 -3.536290 16.994779 15.887105 0.000000 -0.000002 0.000001 0.829088 7.070044 10.414007 -2.026480 11.921492 66.623946 -0.000002 8.019767 -0.000002 -24.560515 -11.141876 -1.301704 -8.958184 3.700073 -4.451118 11.606429 -28.736972 -9.362013 1.173019 -18.508161 -16.137203 -0.000002 -0.000002 -0.000003 -0.010939 -2.409388 10.758198 0.291598 -1.623616 20.362085 0.077602 -0.847542 10.462888 -0.000001 -0.000001 -0.000002 -13.500431 13.379430 10.533391 12.821816 -1.412601 4.126790 2.668614 0.346194 -7.172318 -0.000049 0.000002 -0.000004 0.000000 -0.000000 -0.000000 2.532913 0.866728 1.287325 5.835906 -8.307552 0.122867 -4.873588 2.458459 2.735703 -0.005447 0.000002 0.000000 0.000000 0.000000 0.000000 
0.668102 87.529083 1.255685 -3.341229 8.270183 -2.945215 0.031654 4.524997 1.608345 4.007617 -1.271632 3.874244 4.037940 -1.337558 3.841487 -1.212256 -1.118140 -1.989804 -7.855246 -4.148195 3.721494 0.000000 0.000001 0.000000 -1.667360 -6.383361 -12.399443 6.446631 -22.066205 -72.827882 -0.154672 -18.960516 -0.035605 -20.706579 -3.401745 4.231497 0.024236 2.682557 -10.495206 0.587498 2.558960 -25.856444 0.235312 1.645279 -16.277635 0.000000 -0.000001 -0.000000 -1.777632 2.835003 7.877337 2.843051 24.566558 11.256708 -3.536292 16.994776 15.887122 0.000003 -0.000003 0.000002 0.822801 7.058084 10.469833 -2.051156 11.922940 66.601625 0.022690 7.952185 -0.008586 -24.552833 -11.118192 -1.252358 -8.958182 3.700073 -4.451131 11.606439 -28.736969 -9.361993 1.173031 -18.508163 -16.137176 0.000000 -0.000002 -0.000002 -0.010939 -2.409388 10.758204 0.291599 -1.623613 20.362102 0.077600 -0.847542 10.462858 -0.000000 -0.000001 0.000001 -13.515191 13.379874 10.557645 12.905619 -1.373658 4.111855 2.609124 0.349678 -7.165724 -0.000099 0.001554 -0.000053 -0.000000 -0.000000 0.000000 2.499279 0.863349 1.277259 5.902120 -8.244774 0.129246 -4.896844 2.457123 2.753725 0.006049 -0.017793 0.012500 -0.000000 0.000000 0.000000 
0.678442 87.521347 1.250386 -3.334779 8.244137 -2.965254 0.030288 4.522039 1.605172 4.004327 -1.277940 3.874471 4.034654 -1.343852 3.841729 -1.040523 -1.217376 -1.938054 -7.355619 -4.417059 3.808323 -0.000000 -0.000000 0.000000 -1.667294 -6.384313 -12.398334 6.460067 -22.072222 -72.816490 -0.178812 -18.957620 -0.051435 -20.702520 -3.408577 4.284738 0.024236 2.682558 -10.495211 0.587502 2.558956 -25.856417 0.235307 1.645281 -16.277659 -0.000000 0.000001 0.000005 -1.777628 2.835001 7.877349 2.843059 24.566560 11.256643 -3.536294 16.994774 15.887121 -0.000000 0.000001 0.000002 0.825158 7.047213 10.463699 -2.074430 11.957696 66.615730 0.013541 7.877051 -0.001627 -24.554549 -11.074319 -1.245255 -8.958182 3.700072 -4.451141 11.606433 -28.736959 -9.362000 1.173027 -18.508167 -16.137183 -0.000000 -0.000003 -0.000002 -0.010937 -2.409386 10.758233 0.291597 -1.623616 20.362080 0.077602 -0.847541 10.462874 0.000000 -0.000000 -0.000002 -13.565465 13.385016 10.591267 12.991237 -1.363183 4.096940 2.561592 0.354080 -7.151498 -0.000168 -0.005288 -0.000007 0.000000 -0.000000 0.000000 2.452227 0.881941 1.293816 5.954345 -8.243477 0.116063 -4.893452 2.456737 2.766782 -0.001922 0.038455 -0.024813 -0.000000 -0.000000 -0.000000 
0.694658 87.511139 1.243539 -3.343101 8.228677 -2.974290 0.033434 4.517059 1.600314 4.009348 -1.288742 3.869182 4.039673 -1.354664 3.836461 -0.862014 -1.314622 -1.883477 -6.843719 -4.673084 3.925792 0.000000 -0.000000 0.000001 -1.665867 -6.384699 -12.386105 6.480120 -22.085488 -72.794872 -0.139435 -18.946871 -0.061597 -20.701636 -3.409329 4.299113 0.024236 2.682560 -10.495211 0.587499 2.558956 -25.856438 0.235313 1.645277 -16.277623 0.000002 0.000001 0.000003 -1.777631 2.835004 7.877339 2.843052 24.566553 11.256713 -3.536294 16.994774 15.887134 0.000001 -0.000001 0.000002 0.827191 7.038523 10.457741 -2.113280 11.978250 66.631924 0.080864 7.793994 -0.011492 -24.543119 -11.114619 -1.195325 -8.958182 3.700075 -4.451136 11.606441 -28.736972 -9.361988 1.173027 -18.508175 -16.137205 -0.000001 -0.000002 -0.000001 -0.010937 -2.409389 10.758196 0.291598 -1.623614 20.362107 0.077603 -0.847542 10.462870 -0.000000 -0.000002 -0.000000 -13.602323 13.385283 10.608217 13.085746 -1.355615 4.082613 2.508816 0.358370 -7.130804 -0.000280 0.003991 0.000019 -0.000000 -0.000002 -0.000000 2.414549 0.880647 1.292523 6.033640 -8.230021 0.112249 -4.918490 2.455860 2.779438 0.000729 0.022225 -0.014020 0.000000 -0.000000 -0.000000 
0.707776 87.487343 1.235579 -3.335158 8.194957 -2.981171 0.033474 4.512480 1.593415 4.007953 -1.299076 3.860742 4.038265 -1.365019 3.828037 -0.687752 -1.416234 -1.826433 -6.355486 -4.932696 4.029418 0.000000 -0.000000 0.000001 -1.665593 -6.388626 -12.381586 6.507185 -22.110072 -72.754690 -0.120673 -18.939952 -0.076316 -20.703657 -3.392189 4.278446 0.024235 2.682557 -10.495217 0.587498 2.558957 -25.856432 0.235312 1.645279 -16.277645 -0.000000 -0.000000 -0.000000 -1.777629 2.834998 7.877350 2.843061 24.566551 11.256676 -3.536293 16.994783 15.887122 0.000001 0.000002 0.000002 0.826577 7.028055 10.472172 -2.147495 12.013685 66.629534 0.103152 7.691795 -0.009038 -24.543865 -11.062579 -1.181589 -8.958182 3.700071 -4.451123 11.606429 -28.736972 -9.362010 1.173013 -18.508160 -16.137189 -0.000000 0.000006 0.000002 -0.010937 -2.409387 10.758210 0.291599 -1.623614 20.362122 0.077600 -0.847542 10.462871 -0.000000 -0.000000 -0.000001 -13.688296 13.372694 10.632639 13.254527 -1.327696 4.069815 2.418197 0.366577 -7.116896 -0.003271 0.001653 -0.001246 0.000000 -0.000000 0.000000 2.303317 0.871815 1.274621 6.230487 -8.187571 0.137002 -5.011763 2.453739 2.784991 0.019622 -0.063231 0.043206 0.000000 0.000000 -0.000000 
